# xmcd
#
# Track frame offsets: 
#        150
#        29355
#        54442
#        87115
#        111455
#        145477
#        184390
#        201930
#        232717
#        255982
#
# Disc length: 3731 seconds
#
# Revision: 0
# Processed by: cddbd v1.5.1PL0 Copyright (c) Steve Scherf et al.
# Submitted via: ExactAudioCopy v0.95a5
#
DISCID=860e910a
DTITLE=Various Artist - Kagaz Ki Kashti and Other Hits [CD 1)
DYEAR=1999
DGENRE=Ghazals
TTITLE0=Woh Kagaz Ki Kashti (Jagjit and Chitra Singh)
TTITLE1=Meri Ajab Hai Zindagi (Jagjit Singh)
TTITLE2=Tanha Tanha (Mehdi Hassan)
TTITLE3=La De Sharaab Saqii (Hariharan)
TTITLE4=Agar Hai Rasm (Rochana)
TTITLE5=Ek To Chehra (Ghulam Ali)
TTITLE6=Ek Baar Milo Humse (Salma Agha)
TTITLE7=Shayad Main Zindagi Ki Sahar (Jagjit Singh)
TTITLE8=Sochte Sochte (Asha Bhosle)
TTITLE9=Badi Haseen Raat Thi (Jagjit Singh)
EXTD=
EXTT0=
EXTT1=
EXTT2=
EXTT3=
EXTT4=
EXTT5=
EXTT6=
EXTT7=
EXTT8=
EXTT9=
PLAYORDER=
